<?xml version="1.0" encoding="UTF-8"?>
<svg version="1.1" xmlns="http://www.w3.org/2000/svg" width="1024" height="200">
<path d="M0 0 C0.495 1.485 0.495 1.485 1 3 C1.66 2.01 2.32 1.02 3 0 C22.6365264 -2.65288171 42.42107068 4.47617434 58 16 C61.98985108 19.05106259 64.36711777 21.69164725 67 26 C67.51046875 26.77988281 68.0209375 27.55976563 68.546875 28.36328125 C74.33343942 37.44267637 74.33343942 37.44267637 74 43 C71.5625 45.4375 71.5625 45.4375 69 47 C71.64 47.33 74.28 47.66 77 48 C77.53469802 49.72492978 78.05219175 51.455198 78.5625 53.1875 C78.99755859 54.63189453 78.99755859 54.63189453 79.44140625 56.10546875 C80.03343222 59.17323966 79.93642628 61.03720866 79 64 C77.51008891 65.48991109 75.98287612 66.94270018 74.4375 68.375 C71.93167511 70.63864189 71.93167511 70.63864189 71.58984375 72.75390625 C70.7268704 76.04006305 68.91387425 78.7124835 67.125 81.5625 C66.77308594 82.13935547 66.42117188 82.71621094 66.05859375 83.31054688 C62.4357701 89.14881472 62.4357701 89.14881472 60 91 C53.86153846 91.43076923 53.86153846 91.43076923 51 90 C48.77222487 84.09333017 47.58046709 78.29299361 48 72 C49.32 71.34 50.64 70.68 52 70 C51.34 68.68 50.68 67.36 50 66 C49.071875 66.309375 49.071875 66.309375 48.125 66.625 C47.42375 66.74875 46.7225 66.8725 46 67 C45.34 66.34 44.68 65.68 44 65 C44.2165625 66.17175781 44.433125 67.34351562 44.65625 68.55078125 C48.64810608 90.74956857 48.64810608 90.74956857 45.875 96.21875 C44.5 98.1875 44.5 98.1875 42 101 C35.25 100.25 35.25 100.25 33 98 C32.21625 98.78375 31.4325 99.5675 30.625 100.375 C26.6033633 103.78759075 22.10272004 104.32434339 17 105 C17.99 106.485 17.99 106.485 19 108 C19.25760279 110.69452521 19.08900053 113.28548375 19 116 C19.66 116 20.32 116 21 116 C21.06058594 116.56847656 21.12117188 117.13695313 21.18359375 117.72265625 C21.70176573 122.49781037 22.29243859 127.2492305 23 132 C22.34 132 21.68 132 21 132 C20.896875 132.886875 20.79375 133.77375 20.6875 134.6875 C20 138 20 138 18.5 140.1875 C15.5018086 145.80910888 15.94326193 152.73611719 16 159 C16.66 159 17.32 159 18 159 C18.12375 159.598125 18.2475 160.19625 18.375 160.8125 C18.95475985 163.26231348 18.95475985 163.26231348 21 166 C20.65299184 170.50479681 19.22357627 174.25328554 17.4375 178.375 C16.98246094 179.43460938 16.52742188 180.49421875 16.05859375 181.5859375 C15.70925781 182.38257813 15.35992187 183.17921875 15 184 C13.02 183.01 13.02 183.01 11 182 C11 179.03 11 176.06 11 173 C10.22076172 173.59748047 10.22076172 173.59748047 9.42578125 174.20703125 C-0.83211679 182 -0.83211679 182 -4 182 C-4 182.66 -4 183.32 -4 184 C-4.78503906 184.23074219 -5.57007813 184.46148437 -6.37890625 184.69921875 C-12.84458826 186.70635685 -17.68171298 188.83786233 -23 193 C-23.66 193 -24.32 193 -25 193 C-25.66 194.98 -26.32 196.96 -27 199 C-30.37083647 198.40602001 -32.08460863 197.24851662 -34.625 195 C-37.8657988 192.43988942 -39.88157529 191.67021265 -44 191.5625 C-50.10886404 191.28184775 -52.97680259 188.34805186 -57 184 C-57.98033203 182.95972656 -57.98033203 182.95972656 -58.98046875 181.8984375 C-61.84525409 178.74422023 -64.220169 175.89662029 -66 172 C-66.66 172 -67.32 172 -68 172 C-73.35601098 166.43891653 -77.29076262 160.09861206 -80.7734375 153.25 C-81.92362621 150.8881073 -81.92362621 150.8881073 -84 149 C-84 148.01 -84 147.02 -84 146 C-74.7458318 148.8970764 -65.96713714 153.48428967 -58 159 C-58 159.66 -58 160.32 -58 161 C-56.9790625 161.3403125 -56.9790625 161.3403125 -55.9375 161.6875 C-52.20385676 163.35572357 -49.27836579 165.55729608 -46 168 C-46 164.04 -46 160.08 -46 156 C-47.32 155.67 -48.64 155.34 -50 155 C-52.02463338 144.40298276 -53.0030744 133.73285862 -54 123 C-54.54269531 123.433125 -55.08539063 123.86625 -55.64453125 124.3125 C-56.35996094 124.869375 -57.07539063 125.42625 -57.8125 126 C-58.52019531 126.556875 -59.22789062 127.11375 -59.95703125 127.6875 C-62 129 -62 129 -65 129 C-68.30745125 91.2005571 -68.30745125 91.2005571 -61 78 C-60.30269194 75.6756398 -59.63087848 73.34326294 -59 71 C-57.35 71.66 -55.7 72.32 -54 73 C-54 73.66 -54 74.32 -54 75 C-53.38125 75.28875 -52.7625 75.5775 -52.125 75.875 C-50 77 -50 77 -48 79 C-46.60738122 76.32778425 -46.60738122 76.32778425 -46 73 C-47.82053354 69.85251385 -47.82053354 69.85251385 -50 67 C-50 65.68 -50 64.36 -50 63 C-49.01 63 -48.02 63 -47 63 C-46.505 62.01 -46.505 62.01 -46 61 C-47.32 60.34 -48.64 59.68 -50 59 C-50 57.68 -50 56.36 -50 55 C-57.17018481 50.21987679 -66.84218915 51.58125029 -75 53 C-73.94538867 49.94162714 -73.05934946 49.03641898 -70.25 47.3125 C-67.11475921 46.04634507 -64.34672841 45.39842005 -61 45 C-63.40768703 42.20836288 -65.76146616 41.10282443 -69.1875 39.8125 C-70.08855469 39.46832031 -70.98960937 39.12414063 -71.91796875 38.76953125 C-72.60503906 38.51558594 -73.29210937 38.26164062 -74 38 C-74 37.01 -74 36.02 -74 35 C-68.06 34.505 -68.06 34.505 -62 34 C-63.98 32.68 -65.96 31.36 -68 30 C-67.44295272 26.76912579 -66.66812465 24.97638863 -64 23 C-62.68 23 -61.36 23 -60 23 C-60 22.01 -60 21.02 -60 20 C-56.54074837 21.2491742 -53.85306797 22.67527795 -51 25 C-51.495 21.535 -51.495 21.535 -52 18 C-49.83125748 18.50603992 -48.00032373 18.99983813 -46 20 C-46.495 15.545 -46.495 15.545 -47 11 C-37.25488362 7.07549612 -27.63779085 3.6150946 -17.3125 1.5625 C-16.50071289 1.39911133 -15.68892578 1.23572266 -14.85253906 1.06738281 C-9.82629956 0.13521365 -5.10988081 -0.14599659 0 0 Z M-45 21 C-44 23 -44 23 -44 23 Z M9 36 C9.020625 36.78375 9.04125 37.5675 9.0625 38.375 C9 41 9 41 8 43 C8.58007812 43.12117188 9.16015625 43.24234375 9.7578125 43.3671875 C14.28028442 44.33735474 18.63750966 45.43397783 23 47 C22.814375 46.443125 22.62875 45.88625 22.4375 45.3125 C21.92448835 42.600867 22.3359276 40.65628961 23 38 C18.126739 36.4087311 14.19209404 35.78807779 9 36 Z M-15 55 C-12.03 56.98 -12.03 56.98 -9 59 C-9 58.01 -9 57.02 -9 56 C-7.9275 56.53625 -6.855 57.0725 -5.75 57.625 C-2.26661221 59.39713401 -2.26661221 59.39713401 -0.01171875 58.109375 C0.65214844 57.74328125 1.31601563 57.3771875 2 57 C12.31593652 56.01752986 22.38748996 58.92813038 30.4140625 65.53515625 C31.98449172 66.98567585 33.50436868 68.47264317 35 70 C34.34 68.02 33.68 66.04 33 64 C32.34 64 31.68 64 31 64 C30.505 62.515 30.505 62.515 30 61 C18.54992973 51.37893439 -1.67778614 46.11852409 -15 55 Z M-29 63 C-29.83878455 64.28813342 -30.67086783 65.58063256 -31.5 66.875 C-31.9640625 67.59429687 -32.428125 68.31359375 -32.90625 69.0546875 C-34.16336501 70.91860466 -34.16336501 70.91860466 -34 73 C-34.66 73 -35.32 73 -36 73 C-37.25381197 74.45907525 -37.25381197 74.45907525 -38.4375 76.3125 C-40.10948826 78.81262038 -41.81408865 80.9288012 -44 83 C-37.8000918 86.33247818 -37.8000918 86.33247818 -31 88 C-31.04125 86.7625 -31.0825 85.525 -31.125 84.25 C-31.07281968 78.34318746 -31.07281968 78.34318746 -29 76 C-25.375 74.75 -25.375 74.75 -22 74 C-22.804375 73.05125 -23.60875 72.1025 -24.4375 71.125 C-25.88246997 69.42067644 -26.99740493 68.00519014 -28 66 C-27.01 65.67 -26.02 65.34 -25 65 C-26.32 64.34 -27.64 63.68 -29 63 Z M35 70 C36 72 36 72 36 72 Z M-15 79 C-14.505 79.556875 -14.01 80.11375 -13.5 80.6875 C-11.7333427 83.41109668 -11.66468603 84.81451733 -12 88 C-12.33 88.66 -12.66 89.32 -13 90 C-6.88909517 90.09945415 -1.02596573 90.0712828 5 89 C5 88.67 5 88.34 5 88 C3.783125 87.71125 2.56625 87.4225 1.3125 87.125 C-5.08013709 85.5041718 -5.08013709 85.5041718 -8 84 C-8.33 83.01 -8.66 82.02 -9 81 C-9.99 81 -10.98 81 -12 81 C-12 80.34 -12 79.68 -12 79 C-12.99 79 -13.98 79 -15 79 Z M-49 85 C-49.33 94.24 -49.66 103.48 -50 113 C-51.32 113.33 -52.64 113.66 -54 114 C-54.66 107.4 -55.32 100.8 -56 94 C-56.33 94 -56.66 94 -57 94 C-57 102.58 -57 111.16 -57 120 C-54.339375 118.2984375 -54.339375 118.2984375 -51.625 116.5625 C-46.25 113.125 -46.25 113.125 -44 112 C-44.350625 110.845 -44.70125 109.69 -45.0625 108.5 C-46.69066317 101.40667373 -45.65126168 94.17267932 -45 87 C-46.32 86.34 -47.64 85.68 -49 85 Z M30 88 C31 90 31 90 31 90 Z M-27 117 C-27.33 117.66 -27.66 118.32 -28 119 C-27.01 118.67 -26.02 118.34 -25 118 C-25.66 117.67 -26.32 117.34 -27 117 Z M-25 119 C-24 123 -24 123 -24 123 Z M-6 121 C-5.95875 122.216875 -5.9175 123.43375 -5.875 124.6875 C-5.86245492 128.21894127 -6.40001783 130.80003566 -8 134 C-6.700625 134.185625 -5.40125 134.37125 -4.0625 134.5625 C1.0260626 135.65750714 4.23348536 138.11694261 8.15234375 141.44140625 C9.92452162 143.06012581 9.92452162 143.06012581 12 144 C10.90685917 138.32852818 9.59101543 133.18203086 7 128 C6.34 127.67 5.68 127.34 5 127 C4.375 124.9375 4.375 124.9375 4 123 C3.34 123.66 2.68 124.32 2 125 C-1.36939433 124.66306057 -3.42910583 123.11180592 -6 121 Z M-39 125 C-39.33 125.99 -39.66 126.98 -40 128 C-37.03 128.495 -37.03 128.495 -34 129 C-34.639375 128.71125 -35.27875 128.4225 -35.9375 128.125 C-38 127 -38 127 -39 125 Z M-33 125 C-32 127 -32 127 -32 127 Z M-8 165 C-7.67 168.3 -7.34 171.6 -7 175 C-2.0682659 174.55166054 1.3192924 172.13973905 5 169 C5 168.67 5 168.34 5 168 C4.31292969 167.86722656 3.62585938 167.73445312 2.91796875 167.59765625 C2.01691406 167.42105469 1.11585938 167.24445313 0.1875 167.0625 C-0.70582031 166.88847656 -1.59914063 166.71445313 -2.51953125 166.53515625 C-5 166 -5 166 -8 165 Z M-18 172 C-17.67 173.98 -17.34 175.96 -17 178 C-14 179.33333333 -14 179.33333333 -11 178 C-11.33 175.36 -11.66 172.72 -12 170 C-14.46278801 170 -15.85224119 170.85452863 -18 172 Z M-23 177 C-24.70702735 177.06996014 -26.41668003 177.08440154 -28.125 177.0625 C-29.03507812 177.05347656 -29.94515625 177.04445312 -30.8828125 177.03515625 C-31.58148438 177.02355469 -32.28015625 177.01195312 -33 177 C-31.45155006 183.7535641 -31.45155006 183.7535641 -26.8125 188.5625 C-25.4203125 189.2740625 -25.4203125 189.2740625 -24 190 C-22.22821947 189.043419 -20.45760924 188.08467012 -18.6875 187.125 C-17.70136719 186.59132812 -16.71523437 186.05765625 -15.69921875 185.5078125 C-12.90413542 183.99277874 -12.90413542 183.99277874 -10 182 C-13.07322544 181.08941469 -15.80097361 180.91113816 -19 181 C-19.33 179.35 -19.66 177.7 -20 176 C-21.2236068 175.9254644 -21.2236068 175.9254644 -23 177 Z " fill="#EE6A59" transform="translate(254,0)"/>
<path d="M0 0 C0.95777344 0.26554687 1.91554688 0.53109375 2.90234375 0.8046875 C15.61039502 4.22521467 28.09139821 5.76097829 41.21484375 6.45703125 C41.955672 6.49713318 42.69650024 6.53723511 43.45977783 6.57855225 C47.21204337 6.77998171 50.96402523 6.96678691 54.71826172 7.12744141 C63.09663397 7.52421794 70.93314148 8.55066639 79 11 C79 11.66 79 12.32 79 13 C79.56976563 13.10054687 80.13953125 13.20109375 80.7265625 13.3046875 C87.55863094 15.39422046 94.10102211 22.13272781 98 28 C99.27063343 30.65089014 100.11949436 33.17311348 101 36 C101.29003906 36.86431641 101.29003906 36.86431641 101.5859375 37.74609375 C102.3234662 41.76075468 101.91974673 45.91547497 101.69726562 49.98046875 C101.56483449 55.18942683 102.6973929 58.00756924 106 62 C106.66 62.33 107.32 62.66 108 63 C108 63.66 108 64.32 108 65 C107.01 64.95359375 106.02 64.9071875 105 64.859375 C94.35320543 64.42353722 94.35320543 64.42353722 85 69 C79.40491116 74.74232802 78.34850238 80.67445463 78.3984375 88.47265625 C79.21650759 97.51967235 83.13763177 106.33738742 86.265625 114.79199219 C87 117 87 117 87 119 C87.66 119 88.32 119 89 119 C89.21615967 119.52843506 89.43231934 120.05687012 89.6550293 120.60131836 C90.66014417 123.0491001 91.67377358 125.49327275 92.6875 127.9375 C93.02716797 128.76830078 93.36683594 129.59910156 93.71679688 130.45507812 C95.83455998 135.541668 98.19036708 140.28586901 101.05786133 144.99438477 C102 147 102 147 102 151 C90.12 151 78.24 151 66 151 C62.83725322 144.67450645 60.14597353 139.19562509 58.1875 132.5625 C57.97158203 131.86962891 57.75566406 131.17675781 57.53320312 130.46289062 C56.64286903 127.53750716 56 125.07494665 56 122 C55.36320312 122.13277344 54.72640625 122.26554687 54.0703125 122.40234375 C37.67355286 125.38159583 20.59876205 125.2222486 3.9765625 124.9375 C0.38784297 125.00107056 0.38784297 125.00107056 -3 126 C-3.495 127.485 -3.495 127.485 -4 129 C-4.66 129 -5.32 129 -6 129 C-7.912207 135.25196756 -9.70117951 141.52118811 -11.3515625 147.84765625 C-12 150 -12 150 -13 151 C-16.10251201 151.08874135 -19.1826812 151.11518455 -22.28515625 151.09765625 C-23.21597519 151.0962413 -24.14679413 151.09482635 -25.1058197 151.09336853 C-28.09141191 151.08775172 -31.07693029 151.0751964 -34.0625 151.0625 C-36.08137913 151.05748716 -38.10025943 151.05292388 -40.11914062 151.04882812 C-45.07945572 151.03777683 -50.03971532 151.02050095 -55 151 C-54.34276295 145.69045511 -53.21446528 141.92217799 -50.6875 137.1875 C-48.63662332 133.32153073 -46.77549514 129.53493907 -45.1875 125.45703125 C-42.53026539 118.6680384 -39.40331562 112.09873387 -36.3125 105.5 C-35.71264887 104.21365438 -35.11303796 102.9271967 -34.51367188 101.640625 C-30.26981615 92.5396323 -30.26981615 92.5396323 -29 90 C-28.34 90 -27.68 90 -27 90 C-26.78988281 89.22269531 -26.57976562 88.44539063 -26.36328125 87.64453125 C-24.50115103 82.6664009 -21.86717975 78.26596129 -19.1875 73.6875 C-18.13881578 71.87920026 -17.09063404 70.07060901 -16.04296875 68.26171875 C-15.28185791 66.95146729 -15.28185791 66.95146729 -14.50537109 65.61474609 C-12.29099191 61.76849227 -10.13889313 57.88862571 -8 54 C-7.34 54 -6.68 54 -6 54 C-5.77054687 53.30648437 -5.54109375 52.61296875 -5.3046875 51.8984375 C-3.72435459 48.38763804 -1.52778562 45.5952073 0.875 42.625 C7.58734268 34.69945106 7.58734268 34.69945106 10 25 C8.57841566 22.84359162 8.57841566 22.84359162 6.6875 20.75 C1.09568361 13.83380604 -0.15467648 8.74377045 0 0 Z M32 75 C23.8247113 88.87488729 23.8247113 88.87488729 20 104 C19.34 104.33 18.68 104.66 18 105 C23.94 105 29.88 105 36 105 C35.12922073 94.98603835 34.0667775 84.99456587 33 75 C32.67 75 32.34 75 32 75 Z " fill="#000000" transform="translate(334,33)"/>
<path d="M0 0 C8.13563704 16.27127407 -3.77394332 48.30293291 -8 65 C-8.33 65.66 -8.66 66.32 -9 67 C-8.28714844 66.60167969 -7.57429687 66.20335938 -6.83984375 65.79296875 C11.81725568 55.47255439 11.81725568 55.47255439 22.34375 57.4375 C26.85812179 58.91983103 29.53082638 60.82139849 32 65 C35.50595819 74.29078921 33.68584352 82.66488453 31.6875 92.0625 C31.22775743 94.2825299 30.76812176 96.50258193 30.30859375 98.72265625 C30.08413574 99.79402832 29.85967773 100.86540039 29.62841797 101.96923828 C29.07861089 104.62087194 28.54864124 107.27473389 28.03515625 109.93359375 C27.89956299 110.63411865 27.76396973 111.33464355 27.62426758 112.05639648 C27.27487899 113.87080126 26.92646463 115.68539355 26.578125 117.5 C26 120 26 120 25 121 C24.92851801 122.35243917 24.91600546 123.70834367 24.9375 125.0625 C24.958125 126.361875 24.97875 127.66125 25 129 C27.59345253 128.56775791 29.76366233 128.11816884 32.125 126.9375 C34 126 34 126 37 126 C38.625 128.75 38.625 128.75 40 132 C38.20867162 138.25059266 30.4063431 141.99147959 25 145 C17.87850928 148.12729854 10.65167272 150.3805204 3 148 C-0.85287895 146.14491014 -2.57872744 144.65999367 -4.875 141.0625 C-10.14586864 125.78968183 -2.96850704 105.26347768 1.41992188 90.4777832 C2.33063935 86.5876857 2.19562493 82.97770684 2 79 C0.41632253 79.14204741 -1.16693318 79.28880153 -2.75 79.4375 C-3.63171875 79.51871094 -4.5134375 79.59992188 -5.421875 79.68359375 C-7.69775952 79.96290685 -9.78698816 80.42206661 -12 81 C-12.13575439 81.73412109 -12.27150879 82.46824219 -12.41137695 83.22460938 C-13.50466393 89.13566924 -14.59913378 95.04650692 -15.6953125 100.95703125 C-16.44420496 104.99535595 -17.19054904 109.034098 -17.9296875 113.07421875 C-19.91890717 123.89221934 -19.91890717 123.89221934 -21.125 128.25 C-22.34028419 133.45836083 -22.6625427 138.67172678 -23 144 C-30.30082023 146.67103179 -37.25439685 147.14808727 -44.9375 147.0625 C-45.71673828 147.05798828 -46.49597656 147.05347656 -47.29882812 147.04882812 C-49.19925268 147.03716908 -51.09963706 147.01923877 -53 147 C-53.46558845 136.39395377 -52.38265433 126.76712884 -50.17407227 116.40917969 C-49.68411585 114.10911336 -49.21638601 111.80534244 -48.75195312 109.5 C-47.42814789 103.03069067 -46.02055167 96.70741527 -43.78393555 90.48339844 C-41.7333523 83.98743681 -40.48530257 77.2196849 -39.0625 70.5625 C-38.88702637 69.74452942 -38.71155273 68.92655884 -38.53076172 68.08380127 C-32.21736551 40.15454444 -32.21736551 40.15454444 -31.234375 11.69287109 C-31.34765625 9.53515625 -31.34765625 9.53515625 -31 6 C-23.50390518 -0.79683224 -9.5319467 -0.47136 0 0 Z " fill="#000000" transform="translate(557,40)"/>
<path d="M0 0 C0.33 -1.32 0.66 -2.64 1 -4 C10.23791351 -3.69761331 18.28540319 -2.06651115 27 1 C26.33136076 7.34464349 25.06019687 13.41411666 23.625 19.625 C20.05434647 35.57572245 17.80813822 51.67003464 17 68 C17.60328125 67.69964844 18.2065625 67.39929688 18.828125 67.08984375 C19.62734375 66.70957031 20.4265625 66.32929688 21.25 65.9375 C22.03890625 65.55464844 22.8278125 65.17179687 23.640625 64.77734375 C26.2855986 63.90590377 27.4495641 63.9485045 30 65 C32.02755186 67.93995019 32 69.27704003 32 73 C29.67097509 74.89739095 27.46384556 76.47430727 24.9375 78.0625 C24.28072266 78.49626953 23.62394531 78.93003906 22.94726562 79.37695312 C14.82223769 84.63620766 6.53181691 88.35566011 -3.3125 86.3125 C-7.83382952 84.10440884 -11.1237006 81.77603485 -13 77 C-13.61875 77.495 -14.2375 77.99 -14.875 78.5 C-17 80 -17 80 -19 80 C-19 80.66 -19 81.32 -19 82 C-26.46022861 85.79184196 -33.25085119 88.3326235 -41.5625 85.9375 C-47.70491347 83.55355631 -53.11495058 80.1829949 -56.375 74.3125 C-62.78003434 59.29184426 -61.70166008 38.47923305 -56.1015625 23.34765625 C-50.14512683 10.65326676 -43.13870252 1.28189046 -30 -4 C-20.07535406 -7.02054442 -9.31121076 -3.54948637 0 0 Z M-20 12 C-27.85987474 25.65013749 -31.82165344 45.3112149 -28.36328125 60.86328125 C-27.22866375 64.73942003 -27.22866375 64.73942003 -25 68 C-20.14595693 68.45153889 -16.94849298 67.91564468 -13 65 C-11.98358407 61.67078852 -11.93402128 58.33791942 -11.8125 54.875 C-11.68791611 52.87854731 -11.5576418 50.88244214 -11.421875 48.88671875 C-11.35806641 47.89333496 -11.29425781 46.89995117 -11.22851562 45.87646484 C-10.50153469 36.72551465 -8.83507137 27.48241681 -5.62890625 18.87109375 C-4.6465609 15.94846379 -4.32543186 13.05905951 -4 10 C-10.70901245 7.50362328 -14.79723276 6.40702522 -20 12 Z " fill="#000000" transform="translate(840,102)"/>
<path d="M0 0 C3.13108629 2.4036622 4.45426262 4.4526572 5.5625 8.25 C6.70502551 20.69907667 4.37479307 32.38802393 0.25390625 44.125 C-2.40096096 52.28459187 -2.93035592 60.73531781 -3.4375 69.25 C-2.83421875 68.94964844 -2.2309375 68.64929688 -1.609375 68.33984375 C-0.81015625 67.95957031 -0.0109375 67.57929688 0.8125 67.1875 C1.60140625 66.80464844 2.3903125 66.42179687 3.203125 66.02734375 C5.84947578 65.15545003 7.01032821 65.20009125 9.5625 66.25 C11.09366566 68.36446687 11.58161706 69.63825416 11.5 72.25 C9.45915025 76.6038128 4.66574747 79.03202839 0.5625 81.25 C-0.0975 81.25 -0.7575 81.25 -1.4375 81.25 C-1.4375 81.91 -1.4375 82.57 -1.4375 83.25 C-9.3977749 86.82298351 -16.5371985 89.50493698 -25.25 87.3125 C-28.34658234 86.07819795 -30.21612722 84.90162146 -32 82.0625 C-36.50984164 69.93603693 -32.68511006 55.46801284 -30 43.3125 C-29.3489379 40.28392434 -28.70657606 37.25355092 -28.06640625 34.22265625 C-27.91523346 33.51388336 -27.76406067 32.80511047 -27.60830688 32.07485962 C-26.57171163 27.13527128 -25.84361828 22.27785876 -25.4375 17.25 C-27.39653745 17.72627975 -29.35471097 18.20611423 -31.3125 18.6875 C-32.40304687 18.95433594 -33.49359375 19.22117187 -34.6171875 19.49609375 C-37.36234721 20.1286478 -37.36234721 20.1286478 -39.4375 21.25 C-40.15890184 23.77490644 -40.76408057 26.24912012 -41.3125 28.8125 C-41.66144241 30.37920038 -42.01173334 31.94560095 -42.36328125 33.51171875 C-42.54068848 34.30755371 -42.7180957 35.10338867 -42.90087891 35.92333984 C-43.39144379 38.05031133 -43.92126175 40.15972389 -44.48046875 42.26953125 C-48.03724745 55.71987828 -50.3005706 69.37946127 -51.4375 83.25 C-58.40241819 86.5148054 -65.89975565 86.39741393 -73.4375 86.3125 C-74.21222656 86.30798828 -74.98695313 86.30347656 -75.78515625 86.29882812 C-77.66930524 86.28719758 -79.55341365 86.26926906 -81.4375 86.25 C-81.66107521 79.15960848 -81.05258893 72.53785077 -79.8125 65.5625 C-79.64153809 64.55300293 -79.47057617 63.54350586 -79.29443359 62.50341797 C-78.23272004 56.35806813 -77.03894607 50.24860773 -75.765625 44.14453125 C-75.48100787 42.758113 -75.19666504 41.37163841 -74.91259766 39.98510742 C-74.3615086 37.29633703 -73.78469125 34.61487595 -73.19287109 31.93481445 C-71.36912504 23.10479634 -70.53936861 15.76767541 -75.5625 7.9375 C-76.18125 7.050625 -76.8 6.16375 -77.4375 5.25 C-77.5546875 2.58203125 -77.5546875 2.58203125 -77.4375 0.25 C-69.76878495 -1.58170635 -62.30405003 -2.18388907 -54.4375 -2.4375 C-53.30699219 -2.48455078 -52.17648437 -2.53160156 -51.01171875 -2.58007812 C-42.70452881 -2.8835144 -42.70452881 -2.8835144 -40.4375 -1.75 C-39.5859375 0.31640625 -39.5859375 0.31640625 -38.8125 2.8125 C-38.42191406 4.05193359 -38.42191406 4.05193359 -38.0234375 5.31640625 C-37.83007812 5.95449219 -37.63671875 6.59257813 -37.4375 7.25 C-36.90382813 6.86328125 -36.37015625 6.4765625 -35.8203125 6.078125 C-25.51954321 -1.12172066 -11.64352711 -8.23514917 0 0 Z " fill="#000000" transform="translate(763.4375,100.75)"/>
<path d="M0 0 C1.921875 1.53515625 1.921875 1.53515625 3.25 2.9375 C3.25 3.5975 3.25 4.2575 3.25 4.9375 C3.91 4.9375 4.57 4.9375 5.25 4.9375 C8.31134161 11.82551862 8.27821011 19.63640439 6.0625 26.75 C5.464375 27.801875 4.86625 28.85375 4.25 29.9375 C3.92128906 30.52015625 3.59257813 31.1028125 3.25390625 31.703125 C-3.13987614 41.88007967 -16.47031453 47.28414374 -27.7265625 49.9453125 C-30.17228741 50.45836681 -32.62395033 50.94438324 -35.08203125 51.39453125 C-37.66009924 51.66363669 -37.66009924 51.66363669 -38.75 52.9375 C-36.96349246 60.93960231 -36.96349246 60.93960231 -31.75 66.9375 C-24.15726713 69.46841096 -17.8029188 67.16917797 -10.75 63.9375 C-9.0425002 62.65687515 -7.35628069 61.34299561 -5.75 59.9375 C-4.76 59.9375 -3.77 59.9375 -2.75 59.9375 C-2.09 61.5875 -1.43 63.2375 -0.75 64.9375 C-0.09 64.9375 0.57 64.9375 1.25 64.9375 C1.25 65.9275 1.25 66.9175 1.25 67.9375 C-0.7950061 69.78746217 -2.79607613 71.4248949 -5 73.0625 C-5.58652344 73.51753906 -6.17304687 73.97257812 -6.77734375 74.44140625 C-9.73570387 76.68178234 -12.12188947 78.20340376 -15.75 78.9375 C-15.75 79.5975 -15.75 80.2575 -15.75 80.9375 C-27.45835888 85.05746262 -39.60253756 88.07420343 -51.75 83.9375 C-54.10073735 82.78333036 -55.72301078 81.64443829 -57.75 79.9375 C-57.75 79.2775 -57.75 78.6175 -57.75 77.9375 C-58.41 77.9375 -59.07 77.9375 -59.75 77.9375 C-61.15234375 76.14453125 -61.15234375 76.14453125 -62.6875 73.75 C-63.21601562 72.92628906 -63.74453125 72.10257812 -64.2890625 71.25390625 C-64.77117188 70.48949219 -65.25328125 69.72507812 -65.75 68.9375 C-66.348125 68.03 -66.94625 67.1225 -67.5625 66.1875 C-70.55838844 60.51107979 -69.96824318 53.93565467 -70 47.6875 C-70.020625 46.68847656 -70.04125 45.68945312 -70.0625 44.66015625 C-70.09642319 38.17234594 -69.25147623 32.92410989 -66.75 26.9375 C-66.38519531 26.04160156 -66.02039063 25.14570313 -65.64453125 24.22265625 C-58.59317391 9.73809911 -48.82378474 1.460016 -33.828125 -4.1171875 C-22.58365837 -7.5704374 -9.77157085 -7.08612141 0 0 Z M-32.75 9.9375 C-37.34465661 19.2574107 -40.31508833 30.48336583 -39.75 40.9375 C-33.85397439 39.35751928 -29.68749913 37.89112794 -25.75 32.9375 C-25.75 32.2775 -25.75 31.6175 -25.75 30.9375 C-25.09 30.9375 -24.43 30.9375 -23.75 30.9375 C-23.62625 30.133125 -23.5025 29.32875 -23.375 28.5 C-23.16875 27.654375 -22.9625 26.80875 -22.75 25.9375 C-22.09 25.6075 -21.43 25.2775 -20.75 24.9375 C-19.34216873 22.12183745 -19.5423186 19.7011293 -19.5 16.5625 C-19.47421875 15.42039062 -19.4484375 14.27828125 -19.421875 13.1015625 C-19.77635246 9.68338702 -20.3329762 8.33139439 -22.75 5.9375 C-27.36090864 4.96678239 -29.47811345 6.82895256 -32.75 9.9375 Z " fill="#000000" transform="translate(670.75,103.0625)"/>
<path d="M0 0 C1.90826562 1.90826562 1.16677278 4.69815024 1.18945312 7.23706055 C1.18880859 8.08695557 1.18816406 8.93685059 1.1875 9.8125 C1.18814453 10.66948486 1.18878906 11.52646973 1.18945312 12.40942383 C1.13394083 19.12325743 0.36833714 25.41487751 -1 32 C4.61 32.33 10.22 32.66 16 33 C15 41 15 41 13 45 C7.06 45 1.12 45 -5 45 C-5.11472656 46.21171875 -5.22945313 47.4234375 -5.34765625 48.671875 C-6.0421055 54.92557968 -7.2717429 61.07042953 -8.4375 67.25 C-10.63143059 79.14039735 -12.12589334 90.94515593 -13 103 C-12.32018066 102.79141357 -11.64036133 102.58282715 -10.93994141 102.36791992 C-10.04452637 102.09568604 -9.14911133 101.82345215 -8.2265625 101.54296875 C-7.34049316 101.27250732 -6.45442383 101.0020459 -5.54150391 100.72338867 C-2.71580912 99.9191107 0.08787145 99.38317481 3 99 C4.4570286 101.31410425 5.01957636 102.64532236 4.8671875 105.40625 C3.70948108 108.86893948 2.0812496 109.82454295 -0.9375 111.8125 C-1.83339844 112.41707031 -2.72929687 113.02164063 -3.65234375 113.64453125 C-6 115 -6 115 -8 115 C-8 115.66 -8 116.32 -8 117 C-16.40150485 120.49385598 -25.29134603 123.74384294 -34.375 121 C-38.58734706 119.13169001 -40.88098729 116.00156907 -43 112 C-46.39094394 101.82716819 -43.38155282 89.91904493 -41.25 79.75 C-40.97474448 78.39009545 -40.70050239 77.02998541 -40.42724609 75.66967773 C-38.4211921 65.7508552 -36.29822288 55.85532048 -34 46 C-38.95 46.495 -38.95 46.495 -44 47 C-44.89214652 44.32356043 -45.13540211 42.74615622 -45.125 40 C-45.12757813 39.319375 -45.13015625 38.63875 -45.1328125 37.9375 C-45 36 -45 36 -44 33 C-40.04 33 -36.08 33 -32 33 C-31.67 24.09 -31.34 15.18 -31 6 C-23.76079521 3.91176785 -23.76079521 3.91176785 -20.61328125 3.0234375 C-18.6077934 2.45539662 -16.60364196 1.88232111 -14.60546875 1.2890625 C-9.75651175 -0.07378081 -5.00713032 -0.47113042 0 0 Z " fill="#000000" transform="translate(493,67)"/>
<path d="M0 0 C0.66 0 1.32 0 2 0 C3.15625 1.43359375 3.15625 1.43359375 4.5 3.4375 C9.89963239 10.8702458 16.78397732 16.89198866 25 21 C25 21.66 25 22.32 25 23 C25.68449219 23.26554687 26.36898438 23.53109375 27.07421875 23.8046875 C30.36835871 25.15049101 33.58547871 26.62557597 36.8125 28.125 C37.97394531 28.66382812 39.13539063 29.20265625 40.33203125 29.7578125 C41.21246094 30.16773437 42.09289062 30.57765625 43 31 C43 31.66 43 32.32 43 33 C34.03025407 33.30656094 25.31635604 33.17499005 16.4375 31.75 C15.35106201 31.58600708 15.35106201 31.58600708 14.24267578 31.41870117 C8.09982861 30.34211242 1.8733425 28.53807693 -1.9375 23.375 C-2.4634375 22.199375 -2.4634375 22.199375 -3 21 C-3.33 20.34 -3.66 19.68 -4 19 C-4.76961814 11.50568565 -3.88588876 6.43600326 0 0 Z " fill="#FFFFFF" transform="translate(342,0)"/>
<path d="M0 0 C4.455 0.99 4.455 0.99 9 2 C9.01417969 2.65226562 9.02835937 3.30453125 9.04296875 3.9765625 C9.27450191 8.21925122 9.49100412 12.04140041 11.9375 15.625 C15.7037473 18.54576321 17.95175281 18.80654864 22.62109375 18.53515625 C26.21651623 17.72633379 27.85664862 15.90389542 30 13 C30.33 12.34 30.66 11.68 31 11 C35.455 11.99 35.455 11.99 40 13 C39.68904949 17.35330709 38.68939906 20.28043427 35.7109375 23.54296875 C31.26753087 27.32696572 25.7702805 30.22529461 19.875 30.5625 C12.52394847 29.49541187 7.93962502 26.55301225 3.2265625 20.87890625 C0.14536927 16.15898923 -0.2296185 12.28458968 -0.125 6.6875 C-0.10695313 5.43324219 -0.08890625 4.17898437 -0.0703125 2.88671875 C-0.03550781 1.45779297 -0.03550781 1.45779297 0 0 Z " fill="#F04105" transform="translate(380,56)"/>
</svg>
