<?xml version="1.0" encoding="UTF-8"?>
<svg id="Layer_1" xmlns="http://www.w3.org/2000/svg" version="1.1" viewBox="0 0 612.15 235.88">
  <!-- Generator: Adobe Illustrator 29.8.1, SVG Export Plug-In . SVG Version: 2.1.1 Build 2)  -->
  <defs>
    <style>
      .st0 {
        fill: #231f20;
      }

      .st1 {
        fill: #e49e24;
      }

      .st2 {
        fill: #fff;
      }
    </style>
  </defs>
  <path class="st0" d="M151.77,149.35s-6.95,50.69-66.17,71.14c-59.22-20.46-66.17-71.14-66.17-71.14l-6.26-80.14s36.8-23.07,72.43-23.07,72.43,23.07,72.43,23.07l-6.26,80.14Z"/>
  <g>
    <path class="st2" d="M280.57,170.72c0,.54-.19.8-.55.8-1.75,0-4.57-.09-8.43-.26-3.69-.18-6.41-.26-8.16-.26-2.12,0-4.75.09-7.88.26-3.14.18-5.49.26-7.05.26-.37,0-.55-.26-.55-.8s.19-.8.55-.8c3.13,0,5.4-.29,6.78-.87,1.38-.58,2.08-1.62,2.08-3.14s-.7-3.6-2.08-6.28l-15.49-30.97h-25.45l-11.34,25.23c-1.29,2.94-1.94,5.39-1.94,7.34,0,5.79,4.47,8.68,13.42,8.68.46,0,.7.26.7.8s-.23.8-.7.8c-1.66,0-4.06-.09-7.19-.26-3.51-.18-6.54-.26-9.13-.26-2.4,0-5.26.09-8.57.26-2.95.18-5.35.26-7.19.26-.37,0-.55-.26-.55-.8s.19-.8.55-.8c2.58,0,4.77-.49,6.57-1.47s3.53-2.67,5.19-5.07c1.66-2.4,3.55-5.96,5.67-10.68l29.46-65.54c.09-.26.41-.42.97-.47.55-.05.87.11.97.47l33.34,66.08c3.13,6.5,5.81,10.91,8.02,13.21,2.21,2.31,4.7,3.47,7.47,3.47.37,0,.55.26.55.8h0ZM215.57,125.6h22.69l-11.89-24.03-10.78,24.03h0Z"/>
    <path class="st2" d="M321.38,164.58c.27,0,.51.2.7.6.19.4.14.69-.14.87-3.78,2.59-7.12,4.41-10.03,5.47-2.9,1.07-6.01,1.61-9.34,1.61-5.35,0-9.8-1.42-13.35-4.27-3.55-2.85-5.33-7.57-5.33-14.15v-34.97c0-2.04-.19-3.51-.55-4.41-.37-.89-1.04-1.49-2.01-1.8-.97-.31-2.56-.47-4.77-.47-.27,0-.41-.35-.41-1.07,0-.63.14-.93.41-.93,4.15,0,7.63-.96,10.44-2.87,2.81-1.91,4.45-4.38,4.91-7.41,0-.26.32-.4.97-.4.27,0,.53.05.76.14s.34.23.34.4v9.75c5.07-.09,13.14-.49,24.21-1.2.27,0,.51.29.7.87.19.58.27,1.27.27,2.07,0,.89-.16,1.76-.48,2.6s-.62,1.22-.9,1.14c-7.01-1.61-14.94-2.49-23.79-2.67v37.38c0,5.87,1.16,10.26,3.46,13.15,2.3,2.89,5.86,4.34,10.65,4.34s9.31-1.2,13-3.6l.27-.14v-.02Z"/>
    <path class="st2" d="M403.39,170.72c0,.54-.09.8-.27.8-2.76,0-4.94-.05-6.5-.14l-8.44-.14-8.85.14c-1.48.09-3.55.14-6.22.14-.27,0-.41-.26-.41-.8s.14-.8.41-.8c2.95,0,5.09-.22,6.43-.67,1.34-.44,2.23-1.31,2.69-2.6.46-1.29.7-3.27.7-5.94v-19.36h-36.93v19.36c0,2.67.23,4.65.7,5.94.46,1.29,1.36,2.16,2.69,2.6,1.34.44,3.48.67,6.43.67.27,0,.41.26.41.8s-.14.8-.41.8c-2.68,0-4.75-.05-6.22-.14l-8.71-.14-8.57.14c-1.57.09-3.73.14-6.5.14-.19,0-.27-.26-.27-.8s.09-.8.27-.8c2.95,0,5.11-.22,6.5-.67,1.38-.44,2.33-1.31,2.83-2.6.51-1.29.76-3.27.76-5.94v-40.85c0-2.67-.26-4.63-.76-5.87-.51-1.24-1.43-2.11-2.76-2.6-1.34-.49-3.44-.73-6.29-.73-.27,0-.41-.26-.41-.8s.14-.8.41-.8l6.22.14c3.51.18,6.36.26,8.57.26s5.16-.09,8.85-.26l6.08-.14c.27,0,.41.26.41.8s-.14.8-.41.8c-2.86,0-4.96.26-6.29.8-1.34.54-2.26,1.45-2.76,2.74-.51,1.29-.76,3.27-.76,5.94v18.56h36.93v-18.56c0-2.67-.23-4.65-.7-5.94-.46-1.29-1.38-2.2-2.76-2.74-1.38-.54-3.51-.8-6.36-.8-.27,0-.41-.26-.41-.8s.14-.8.41-.8l6.22.14c3.51.18,6.45.26,8.85.26,2.12,0,4.94-.09,8.44-.26l6.5-.14c.19,0,.27.26.27.8s-.09.8-.27.8c-2.95,0-5.11.25-6.5.73-1.38.49-2.33,1.36-2.83,2.6-.51,1.24-.76,3.2-.76,5.87v40.85c0,2.67.25,4.65.76,5.94.51,1.29,1.45,2.16,2.83,2.6s3.55.67,6.5.67c.19,0,.27.26.27.8h0Z"/>
    <path class="st2" d="M459.14,164.31c.27,0,.53.16.76.47.23.32.25.6.07.87-6.46,4.98-13.56,7.48-21.3,7.48-6.83,0-12.64-1.49-17.43-4.47-4.79-2.98-8.39-6.87-10.78-11.68-2.4-4.81-3.6-9.96-3.6-15.49,0-6.14,1.55-11.82,4.63-17.02,3.08-5.21,7.22-9.32,12.38-12.35,5.16-3.02,10.78-4.54,16.88-4.54s11.17,1.69,14.45,5.07c3.27,3.38,4.91,7.88,4.91,13.48,0,.98-.12,1.67-.34,2.07-.23.4-.67.6-1.31.6l-40.12.14c-.37,3.03-.55,5.52-.55,7.48,0,9.44,2.35,17.13,7.05,23.09,4.7,5.96,11.16,8.95,19.37,8.95,2.58,0,5.19-.33,7.82-1s4.96-1.71,6.98-3.14h.14v-.02ZM425.25,114.78c-3.05,2.85-5.16,6.85-6.36,12.01l29.88-.54c.09-5.07-.92-8.96-3.05-11.68-2.12-2.71-5.26-4.07-9.4-4.07s-8.02,1.42-11.07,4.27Z"/>
    <path class="st2" d="M541.16,170.72c0,.54-.09.8-.27.8-2.3,0-4.11-.05-5.4-.14l-7.33-.14-8.57.14c-1.38.09-3.23.14-5.54.14-.19,0-.27-.26-.27-.8s.09-.8.27-.8c2.67,0,4.68-.26,6.01-.8,1.34-.54,2.23-1.45,2.7-2.74.46-1.29.7-3.27.7-5.94v-26.57c0-8.55-1.48-14.44-4.43-17.69-2.95-3.25-7.1-4.88-12.45-4.88-3.97,0-7.68.84-11.14,2.54-3.46,1.69-6.94,4.58-10.44,8.68v37.91c0,2.67.21,4.65.62,5.94.41,1.29,1.24,2.2,2.49,2.74,1.24.54,3.15.8,5.74.8.27,0,.41.26.41.8s-.14.8-.41.8c-2.58,0-4.62-.05-6.08-.14l-8.3-.14-7.89.14c-1.57.09-3.64.14-6.22.14-.19,0-.27-.26-.27-.8s.09-.8.27-.8c2.76,0,4.79-.24,6.08-.73,1.29-.49,2.19-1.36,2.69-2.6.51-1.24.76-3.2.76-5.87v-40.85c0-2.67-.23-4.63-.7-5.87-.46-1.24-1.31-2.11-2.56-2.6-1.24-.49-3.21-.73-5.88-.73-.27,0-.41-.26-.41-.8s.14-.8.41-.8l8.99.14,7.61-.14c1.11,0,1.82.16,2.14.47.32.32.48,1,.48,2.07v7.74c3.97-4.09,8.07-7.1,12.31-9.01,4.24-1.91,8.76-2.87,13.56-2.87,6.64,0,12.06,1.8,16.25,5.4,4.19,3.6,6.29,9.28,6.29,17.02v30.84c0,2.67.19,4.65.55,5.94.37,1.29,1.06,2.16,2.08,2.6s2.63.67,4.84.67c.19,0,.27.26.27.8h.02Z"/>
    <path class="st2" d="M606.3,164.04c.37,0,.62.2.76.6.14.4.02.69-.34.87l-14.66,6.81-1.11.26c-1.57,0-3.11-.8-4.63-2.4s-2.56-4-3.11-7.21l-8.86,4.94c-3.14,1.69-5.74,2.87-7.82,3.54s-4.13,1-6.15,1c-3.41,0-6.22-.93-8.44-2.8-2.21-1.87-3.32-4.09-3.32-6.68,0-3.11,1.09-5.71,3.25-7.81,2.16-2.09,5.93-4.07,11.28-5.94l19.78-6.94v-15.75c0-5.43-.74-9.39-2.21-11.88-1.48-2.49-3.83-3.74-7.05-3.74-3.78,0-6.61,1.29-8.5,3.87-1.89,2.59-3.34,5.87-4.36,9.88-1.02,3.92-3.09,5.87-6.22,5.87-1.75,0-3.18-.49-4.29-1.47-1.11-.98-1.62-2.22-1.52-3.74,0-2.31,1.68-4.85,5.04-7.61,3.37-2.76,7.42-5.1,12.17-7.01,4.75-1.91,9.11-2.87,13.07-2.87,4.24,0,7.63,1.22,10.17,3.67s3.8,6.12,3.8,11.01v31.77c0,4.27.65,7.21,1.94,8.81,1.29,1.61,3.05,2.4,5.26,2.4,1.48,0,3.46-.49,5.95-1.47h.14l-.02.02ZM583.06,160.97c-.09-.44-.14-1.15-.14-2.13v-14.42l-14.24,5.21c-3.05,1.16-5.21,2.52-6.5,4.07-1.3,1.56-1.94,3.41-1.94,5.54s.71,4.09,2.15,5.61c1.43,1.51,3.15,2.27,5.19,2.27,1.75,0,4.05-.67,6.92-2l8.57-4.14h0Z"/>
  </g>
  <path class="st2" d="M144.75,145.4s-6.22,46.06-59.16,64.65c-52.94-18.59-59.16-64.65-59.16-64.65l-5.59-72.83s32.9-20.96,64.75-20.96,64.75,20.96,64.75,20.96l-5.59,72.83h0Z"/>
  <path class="st1" d="M141.55,140.85s-5.88,43.83-55.95,61.52c-50.07-17.69-55.95-61.52-55.95-61.52l-5.29-69.29s31.12-19.94,61.24-19.94,61.24,19.94,61.24,19.94l-5.29,69.29h0Z"/>
  <path class="st1" d="M85.6,40.88c-38.56,0-78.4,24.72-78.4,24.72l6.77,85.89s7.52,54.33,71.63,76.25c64.1-21.93,71.63-76.25,71.63-76.25l6.77-85.89s-39.83-24.72-78.4-24.72h0ZM150.06,145.71s-7.11,51.07-64.8,70.81c-57.69-19.73-64.13-70.81-64.13-70.81l-6.1-77.3s35.85-22.25,70.56-22.25,70.56,22.25,70.56,22.25l-6.1,77.3Z"/>
  <path class="st0" d="M98.13,63.4c5.19-3.66,12.53-5.2,19.15-6.22v-3.75c-17.6-.91-29.92-10.32-31.04-21.11h-1.61c-1.46,10.97-12.21,18.42-30.85,19.73v5.13c18.12,1.13,27.16,12.8,29.72,29.77h3.86c1.76-6.38,4.11-20.33,10.77-23.55Z"/>
  <g>
    <path class="st1" d="M98.43,58.48c5.3-3.75,12.81-6.49,19.59-6.87,0-.16.16-.12,0-.16-18.42-4.75-31.8-13.73-32.25-31.57h-.65c-.59,18.03-12.13,26.28-32.05,31.64h0c18.53.29,30.46,13.68,31.55,31.05h1.64c.75-6.52,5.35-20.8,12.17-24.09h0Z"/>
    <path class="st2" d="M94.15,55.33c3.54-2.12,8.55-3.68,13.06-3.89,0-.09.1-.07,0-.09-12.29-2.69-21.21-7.78-21.51-17.9h-.43c-.39,10.22-8.09,14.9-21.38,17.94h0c12.36.17,20.32,7.76,21.05,17.6h1.09c.5-3.7,3.57-11.79,8.12-13.66h0Z"/>
    <path class="st1" d="M125.48,28.37c3.01-2.12,7.25-3.01,11.09-3.6v-.9c-10.19-.53-17.32-7.24-17.97-17.34h-.93c-.85,10.21-7.07,16.59-17.86,17.34v.9c10.49.66,17.24,7.41,17.86,17.24h.93c.42-3.69,3.03-11.77,6.89-13.64h0Z"/>
    <path class="st2" d="M122.36,26.43c1.72-1.12,4.15-1.59,6.34-1.9v-.47c-5.82-.28-9.9-3.82-10.27-9.15h-.53c-.49,5.38-4.04,8.75-10.2,9.15v.47c5.99.35,9.85,3.91,10.2,9.09h.53c.24-1.95,1.73-6.2,3.94-7.19h0Z"/>
    <path class="st1" d="M149.82,44.46c1.67-1.18,4.03-1.67,6.16-2v-.5c-5.67-.29-9.63-4.03-10-9.65h-.52c-.47,5.68-3.93,9.23-9.93,9.65v.5c5.83.36,9.59,4.12,9.93,9.59h.52c.23-2.05,1.69-6.54,3.83-7.58h0Z"/>
    <path class="st2" d="M147.81,43.3c.85-.57,2.04-.82,3.12-.98v-.24c-2.87-.14-4.88-1.97-5.06-4.72h-.26c-.24,2.77-1.99,4.51-5.03,4.72v.24c2.95.18,4.86,2.02,5.03,4.69h.26c.12-1,.85-3.2,1.94-3.71h0Z"/>
  </g>
  <ellipse class="st2" cx="62.47" cy="107.35" rx="8.77" ry="8.46"/>
  <ellipse class="st2" cx="107.12" cy="107.35" rx="8.77" ry="8.46"/>
  <path class="st2" d="M45.61,135.84s22.87,10.04,31.52,28.2c9.55,20.05,3.72,44.11,3.72,44.11,0,0-18.84-21.4-25.44-36.16-10.78-24.12-9.79-36.16-9.79-36.16h0Z"/>
  <path class="st2" d="M124.89,136.08s-22.87,10.04-31.52,28.2c-9.55,20.05-3.72,44.11-3.72,44.11,0,0,18.84-21.4,25.44-36.16,10.78-24.12,9.79-36.16,9.79-36.16h0Z"/>
  <g>
    <path class="st1" d="M85.72,170.87c-.15.45-.3.91-.45,1.36-.14-.46-.29-.91-.45-1.36-5.22-15.5-16.56-28.07-32.77-36.34l-7.36-3.75c-.48-4.07-.69-7.98-.62-11.7.94,1.49,2.05,2.89,3.34,4.12,4.21,4.06,9.81,6.3,15.77,6.3,2.58,0,5.09-.42,7.5-1.25l14.49,22.18,14.67-22.18c2.41.83,4.93,1.25,7.51,1.25,5.96,0,11.56-2.24,15.77-6.3,1.29-1.24,2.41-2.63,3.34-4.12.07,3.72-.14,7.63-.62,11.7l-7.36,3.75c-16.22,8.28-27.55,20.84-32.77,36.34h-.02Z"/>
    <path class="st2" d="M108.24,86.48c-.31-.02-.61-.02-.88-.02-5.69,0-11.1,2.07-15.26,5.84-3.74,3.39-6.12,7.85-6.82,12.71-.7-4.85-3.08-9.32-6.82-12.71-4.15-3.77-9.57-5.84-15.26-5.84-.27,0-.57,0-.88.02l-3.44-.99c6.66-4.49,16.12-7.03,26.39-7.03s19.73,2.54,26.39,7.03l-3.44.99h0Z"/>
  </g>
  <g>
    <path class="st0" d="M53.07,116.57c2.55,2.46,5.95,3.82,9.56,3.82s7-1.36,9.56-3.83c2.55-2.46,3.96-5.74,3.96-9.23s-1.41-6.77-3.97-9.23c-2.55-2.46-5.95-3.83-9.56-3.83s-7,1.36-9.56,3.82c-2.55,2.46-3.96,5.74-3.96,9.23s1.41,6.75,3.96,9.23v.02ZM54.52,107.35c0-2.1.84-4.06,2.37-5.54,1.53-1.48,3.57-2.29,5.74-2.29s4.21.81,5.73,2.29c1.53,1.48,2.37,3.45,2.37,5.54s-.84,4.06-2.37,5.54c-1.53,1.48-3.56,2.28-5.73,2.28s-4.21-.81-5.74-2.29c-1.53-1.48-2.37-3.44-2.37-5.53h0Z"/>
    <path class="st0" d="M107.87,94.29c-3.61,0-7,1.36-9.56,3.82h0c-2.55,2.46-3.97,5.74-3.97,9.23s1.41,6.75,3.97,9.23,5.95,3.82,9.56,3.82,7.01-1.36,9.56-3.83c2.55-2.46,3.97-5.74,3.97-9.23s-1.41-6.76-3.96-9.23-5.95-3.82-9.56-3.82h0ZM107.87,115.17c-2.17,0-4.21-.81-5.74-2.29-1.53-1.48-2.37-3.44-2.37-5.53s.84-4.06,2.37-5.54c1.53-1.48,3.56-2.28,5.73-2.28s4.2.81,5.74,2.29c1.53,1.48,2.37,3.44,2.37,5.54s-.84,4.06-2.37,5.53c-1.53,1.48-3.57,2.29-5.74,2.29h0Z"/>
    <path class="st0" d="M147.93,77.91l-.52-2.91-29.47,8.56c-7.57-6.54-19.72-10.43-32.69-10.43s-25.02,3.79-32.68,10.43l-26.55-7.72c-2.18-.63-1.1.73-2.19,1.28-.55.29-.65,2.14-.9,2.68l.05,2.13c-.37,1.81-1.34.44,20.74,13.39-4.4,9.13-5.97,21.09-4.53,34.71l.41,3.35c.06.45.12.9.2,1.37l.79,4.61c.8,4.18,1.87,8.48,3.15,12.78.27.89.54,1.78.83,2.68l1.51,4.45c1.8,5.06,3.89,10.1,6.23,14.99l1.44,2.94c1.38,2.74,2.85,5.43,4.36,8.03l1.47,2.46c6.1,9.99,12.96,18.38,19.9,24.3l5.8,4.51,5.84-4.55c6.88-5.89,13.74-14.28,19.86-24.28l1.47-2.46c1.51-2.59,2.98-5.28,4.36-8.03l1.44-2.94c2.34-4.9,4.44-9.93,6.23-14.99l1.51-4.45c.28-.89.55-1.77.83-2.66,1.29-4.31,2.34-8.61,3.15-12.81l.79-4.61c.07-.45.13-.9.2-1.35l.41-3.37c1.42-13.46-.1-25.33-4.4-34.41,1.85-.77,3.83-1.45,5.77-2.13,8.35-2.88,16.98-5.86,15.24-15.59h-.02ZM85.69,170.78c-.15.45-.3.91-.45,1.36-.14-.46-.29-.91-.45-1.36-5.22-15.5-16.56-28.07-32.77-36.34l-7.36-3.75c-.48-4.07-.69-7.98-.62-11.7.94,1.49,2.05,2.89,3.34,4.12,4.21,4.06,9.81,6.3,15.77,6.3,2.58,0,5.09-.42,7.5-1.25l14.49,22.18,14.67-22.18c2.41.83,4.93,1.25,7.51,1.25,5.96,0,11.56-2.24,15.77-6.3,1.29-1.24,2.41-2.63,3.34-4.12.07,3.72-.14,7.63-.62,11.7l-7.36,3.75c-16.22,8.28-27.55,20.84-32.77,36.34h-.02ZM91.57,123.11c1.04,1,2.19,1.91,3.4,2.7l-9.79,14.8-9.67-14.8c1.23-.79,2.37-1.7,3.42-2.71,3.47-3.35,5.65-7.61,6.32-12.21.66,4.61,2.85,8.86,6.32,12.21ZM108.21,86.39c-.31-.02-.61-.02-.88-.02-5.69,0-11.1,2.07-15.26,5.84-3.74,3.39-6.12,7.85-6.82,12.71-.7-4.85-3.08-9.32-6.82-12.71-4.15-3.77-9.57-5.84-15.26-5.84-.27,0-.57,0-.88.02l-3.44-.99c6.66-4.49,16.12-7.03,26.39-7.03s19.73,2.54,26.39,7.03l-3.44.99h0ZM120.44,92.94l-.52.3-.49,3.26.41.43c1.41,1.5,2.51,3.21,3.26,5.09.75,1.86,1.12,3.84,1.12,5.87,0,4.36-1.76,8.45-4.94,11.52-3.19,3.08-7.43,4.77-11.94,4.77s-8.75-1.7-11.94-4.77c-3.19-3.08-4.94-7.17-4.94-11.52,0-.38,0-.72.03-1.02.27-4.15,2.14-8,5.29-10.85,3.15-2.85,7.25-4.42,11.55-4.42.39,0,.74,0,1.05.03l.48.03,33.47-9.72c-1.35,3.17-6.09,4.8-11.46,6.66-3.55,1.23-7.22,2.49-10.43,4.36v-.02ZM61.64,91.66l.48-.03c.32-.02.67-.03,1.06-.03,4.3,0,8.41,1.57,11.55,4.42,3.15,2.86,5.03,6.71,5.29,10.85.02.3.03.64.03,1.02,0,4.36-1.76,8.45-4.94,11.52-3.19,3.08-7.43,4.77-11.94,4.77s-8.75-1.7-11.94-4.77c-3.19-3.08-4.94-7.17-4.94-11.52,0-2.04.37-4.01,1.12-5.87.75-1.87,1.84-3.58,3.26-5.09l.41-.44-.54-3.27-.8-.47c-5.16-1.44-20.51-4.99-22.79-11.19l34.69,10.08h0ZM49.52,139.05c14.95,7.63,25.37,19.16,30.15,33.35,2.61,7.75,3.45,15.99,2.51,24.47-.34,2.98-.89,5.99-1.67,8.97-13.06-12.38-25.07-33.26-31.59-55.11-1.38-4.62-2.48-9.2-3.29-13.65l3.88,1.97h0ZM124.86,137.08c-.8,4.45-1.91,9.03-3.29,13.65-6.52,21.85-18.52,42.74-31.59,55.11-.77-2.97-1.34-5.98-1.67-8.97-.94-8.49-.1-16.73,2.51-24.47,4.78-14.19,15.2-25.72,30.15-33.35l3.88-1.97h0Z"/>
  </g>
  <g>
    <path class="st0" d="M53.05,116.57c2.55,2.46,5.95,3.82,9.56,3.82s7-1.36,9.56-3.83c2.55-2.46,3.96-5.74,3.96-9.23s-1.41-6.77-3.97-9.23c-2.55-2.46-5.95-3.83-9.56-3.83s-7,1.36-9.56,3.82c-2.55,2.46-3.96,5.74-3.96,9.23s1.41,6.75,3.96,9.23v.02ZM54.5,107.35c0-2.1.84-4.06,2.37-5.54,1.53-1.48,3.57-2.29,5.74-2.29s4.21.81,5.73,2.29c1.53,1.48,2.37,3.45,2.37,5.54s-.84,4.06-2.37,5.54c-1.53,1.48-3.56,2.28-5.73,2.28s-4.21-.81-5.74-2.29c-1.53-1.48-2.37-3.44-2.37-5.53h0Z"/>
    <path class="st0" d="M107.84,94.29c-3.61,0-7,1.36-9.56,3.82h0c-2.55,2.46-3.97,5.74-3.97,9.23s1.41,6.75,3.97,9.23c2.55,2.46,5.95,3.82,9.56,3.82s7.01-1.36,9.56-3.83c2.55-2.46,3.97-5.74,3.97-9.23s-1.41-6.76-3.96-9.23-5.95-3.82-9.56-3.82h0ZM107.84,115.17c-2.17,0-4.21-.81-5.74-2.29-1.53-1.48-2.37-3.44-2.37-5.53s.84-4.06,2.37-5.54c1.53-1.48,3.56-2.28,5.73-2.28s4.2.81,5.74,2.29c1.53,1.48,2.37,3.44,2.37,5.54s-.84,4.06-2.37,5.53c-1.53,1.48-3.57,2.29-5.74,2.29h0Z"/>
    <path class="st0" d="M130.78,108.03c-.82-4.55-2.11-8.71-3.86-12.41,1.85-.77,3.83-1.45,5.77-2.13,8.35-2.88,16.98-5.86,15.24-15.59h-.02s-.52-2.91-.52-2.91l-29.47,8.56c-7.57-6.54-19.72-10.43-32.69-10.43s-25.02,3.79-32.68,10.43l-29.46-8.56c-1.27,6.94-.93,8.4,1.18,11.19s5.6,4.44,19.28,9.43c-1.45,3.01-2.86,7.33-3.63,11.27-.33,1.71,1.58,10.81,7.47,16.22,2.26,2.07,7.79,6.3,15.77,6.3,2.36,0,5.09-.42,7.5-1.25l14.54,22.27v-9.82l-9.69-14.8c1.23-.79,2.37-1.7,3.42-2.71,3.47-3.35,5.65-7.61,6.32-12.21.66,4.61,2.85,8.86,6.32,12.21,1.04,1,2.19,1.91,3.4,2.7l-9.77,14.8v9.82l14.62-22.27c2.41.83,4.93,1.25,7.51,1.25,5.96,0,11.56-2.24,15.77-6.3,1.29-1.24,2.41-2.63,3.34-4.12,0,0,.84-1.07,2.29-4.71,1.45-3.64,2.07-6.25,2.07-6.25ZM108.19,86.39c-.31-.02-.61-.02-.88-.02-5.69,0-11.1,2.07-15.26,5.84-3.74,3.39-6.12,7.85-6.82,12.71-.7-4.85-3.08-9.32-6.82-12.71-4.15-3.77-9.57-5.84-15.26-5.84-.27,0-.57,0-.88.02l-3.44-.99c6.66-4.49,16.12-7.03,26.39-7.03s19.73,2.54,26.39,7.03l-3.44.99h0ZM120.42,92.94l-.52.3-.49,3.26.41.43c1.41,1.5,2.51,3.21,3.26,5.09.75,1.86,1.12,3.84,1.12,5.87,0,4.36-1.76,8.45-4.94,11.52-3.19,3.08-7.43,4.77-11.94,4.77s-8.75-1.7-11.94-4.77c-3.19-3.08-4.94-7.17-4.94-11.52,0-.38,0-.72.03-1.02.27-4.15,2.14-8,5.29-10.85,3.15-2.85,7.25-4.42,11.55-4.42.39,0,.74,0,1.05.03l.48.03,33.47-9.72c-1.35,3.17-6.09,4.8-11.46,6.66-3.55,1.23-7.22,2.49-10.43,4.36v-.02ZM61.61,91.66l.48-.03c.32-.02.67-.03,1.06-.03,4.3,0,8.41,1.57,11.55,4.42,3.15,2.86,5.03,6.71,5.29,10.85.02.3.03.64.03,1.02,0,4.36-1.76,8.45-4.94,11.52-3.19,3.08-7.43,4.77-11.94,4.77s-8.75-1.7-11.94-4.77-4.94-7.17-4.94-11.52c0-2.04.37-4.01,1.12-5.87.75-1.87,1.84-3.58,3.26-5.09l.41-.44-.54-3.27-.8-.47c-4.11-2.85-20.26-6.11-21.55-10.82l33.45,9.71h0Z"/>
  </g>
  <polygon class="st0" points="85.18 143.08 96.75 125.6 85.58 109.96 74.01 126.52 85.18 143.08"/>
</svg>